<?xml version="1.0" encoding="UTF-8" standalone="no"?>
<svg
   xmlns:dc="http://purl.org/dc/elements/1.1/"
   xmlns:cc="http://creativecommons.org/ns#"
   xmlns:rdf="http://www.w3.org/1999/02/22-rdf-syntax-ns#"
   xmlns:svg="http://www.w3.org/2000/svg"
   xmlns="http://www.w3.org/2000/svg"
   xmlns:sodipodi="http://sodipodi.sourceforge.net/DTD/sodipodi-0.dtd"
   xmlns:inkscape="http://www.inkscape.org/namespaces/inkscape"
   width="305.59592pt"
   height="595.21704pt"
   viewBox="0 0 305.59593 595.21704"
   version="1.2"
   id="svg106"
   sodipodi:docname="karabasina2.svg"
   inkscape:version="0.92.5 (2060ec1f9f, 2020-04-08)">
  <metadata
     id="metadata112">
    <rdf:RDF>
      <cc:Work
         rdf:about="">
        <dc:format>image/svg+xml</dc:format>
        <dc:type
           rdf:resource="http://purl.org/dc/dcmitype/StillImage" />
        <dc:title></dc:title>
      </cc:Work>
    </rdf:RDF>
  </metadata>
  <defs
     id="defs110" />
  <sodipodi:namedview
     pagecolor="#ffffff"
     bordercolor="#666666"
     borderopacity="1"
     objecttolerance="10"
     gridtolerance="10"
     guidetolerance="10"
     inkscape:pageopacity="0"
     inkscape:pageshadow="2"
     inkscape:window-width="1920"
     inkscape:window-height="1021"
     id="namedview108"
     showgrid="false"
     inkscape:zoom="0.73317199"
     inkscape:cx="39.289355"
     inkscape:cy="232.36138"
     inkscape:window-x="0"
     inkscape:window-y="32"
     inkscape:window-maximized="1"
     inkscape:current-layer="svg106" />
  <g
     id="surface29214"
     transform="translate(-268.17078,0.00109376)">
    <path
       style="fill:#000000;fill-opacity:1;fill-rule:nonzero;stroke:#000000;stroke-width:9;stroke-linecap:round;stroke-linejoin:round;stroke-miterlimit:10;stroke-opacity:1"
       d="m 26204.427,39013.542 -15.885,32.031 -85.157,85.937 -15.885,3.907 -5.99,-57.813 15.886,-32.031 85.156,-86.198 15.885,-3.906 5.99,58.073"
       transform="scale(0.015)"
       id="path91"
       inkscape:connector-curvature="0" />
    <path
       style="fill:#000000;fill-opacity:1;fill-rule:nonzero;stroke:#000000;stroke-width:9;stroke-linecap:round;stroke-linejoin:round;stroke-miterlimit:10;stroke-opacity:1"
       d="m 25511.458,39000.521 -45.052,45.052 -44.791,-45.052 44.791,-45.052 45.052,45.052"
       transform="scale(0.015)"
       id="path93"
       inkscape:connector-curvature="0" />
    <path
       style="fill:#000000;fill-opacity:1;fill-rule:nonzero;stroke:#000000;stroke-width:9;stroke-linecap:round;stroke-linejoin:round;stroke-miterlimit:10;stroke-opacity:1"
       d="m 18749.479,25746.615 -45.052,44.791 -45.052,-44.791 45.052,-45.053 45.052,45.053"
       transform="scale(0.015)"
       id="path95"
       inkscape:connector-curvature="0" />
    <path
       style="fill:#000000;fill-opacity:1;fill-rule:nonzero;stroke:#000000;stroke-width:9;stroke-linecap:round;stroke-linejoin:round;stroke-miterlimit:10;stroke-opacity:1"
       d="m 30895.573,8793.4896 26.042,76.0417 -73.178,142.9687 -69.01,44.0104 -165.885,47.9167 -47.917,-51.8229 12.76,-98.1771 79.167,-129.9479 128.906,-58.8542 109.115,27.8646"
       transform="scale(0.015)"
       id="path97"
       inkscape:connector-curvature="0" />
    <path
       style="fill:#000000;fill-opacity:1;fill-rule:nonzero;stroke:#000000;stroke-width:9;stroke-linecap:round;stroke-linejoin:round;stroke-miterlimit:10;stroke-opacity:1"
       d="m 27585.417,8524.4792 -44.792,45.0521 -45.052,-45.0521 45.052,-45.0521 44.792,45.0521"
       transform="scale(0.015)"
       id="path99"
       inkscape:connector-curvature="0" />
    <path
       style="fill:#000000;fill-opacity:1;fill-rule:nonzero;stroke:#000000;stroke-width:9;stroke-linecap:round;stroke-linejoin:round;stroke-miterlimit:10;stroke-opacity:1"
       d="m 32134.375,6284.375 123.177,166.1458 58.073,153.9063 -33.073,53.125 -152.083,-41.9271 -171.875,-73.1771 -202.084,-117.9687 -28.125,-96.0938 148.177,-65.8854 64.844,-9.8958 192.969,31.7708"
       transform="scale(0.015)"
       id="path101"
       inkscape:connector-curvature="0" />
    <path
       style="fill:#000000;fill-opacity:1;fill-rule:nonzero;stroke:#000000;stroke-width:9;stroke-linecap:round;stroke-linejoin:round;stroke-miterlimit:10;stroke-opacity:1"
       d="m 31322.396,42.447917 411.979,100.000003 456.25,142.96875 441.927,166.14583 367.969,169.01042 177.083,105.98958 178.906,182.03125 197.917,278.90625 132.031,236.9792 98.959,211.9791 69.01,188.0209 45.052,203.9062 25,259.1146 13.021,352.0833 3.906,485.9375 v 122.9167 l 8.073,596.0938 22.917,441.927 46.094,311.9792 76.041,205.9896 111.979,126.0416 154.948,71.0938 57.032,14.8437 604.948,151.0417 460.156,152.0833 348.958,169.0105 273.958,203.9062 177.084,185.9375 159.896,225 48.958,208.0729 -19.01,210.1563 -23.959,232.8125 41.146,116.1458 107.813,48.9583 104.947,52.0834 50,115.8854 9.115,228.125 -3.906,136.9792 -22.136,285.9375 -48.958,159.8958 -103.125,86.9792 -93.75,36.9791 -181.25,109.1146 -14.844,110.9375 145.052,163.0209 242.969,23.9583 147.917,-40.8854 155.989,-48.9584 22.136,45.8334 -45.052,94.0104 -40.104,126.0417 72.135,91.927 183.854,88.0209 336.198,225 225.781,323.9583 96.094,374.2188 -57.031,377.8642 -8.073,21.094 -66.927,230.99 35.156,102.864 125.781,-39.843 72.136,-59.115 177.864,-114.844 116.146,-30.989 14.063,53.906 -104.167,133.854 -120.052,115.104 -195.833,186.979 -122.136,146.094 -20.833,45.833 -32.031,121.094 -83.073,232.031 -96.875,246.875 -215.105,453.125 -209.895,294.011 -199.219,127.083 -41.927,3.906 -91.927,59.896 2.864,53.125 105.99,85.938 182.031,-30.99 211.198,-136.979 80.99,-79.948 180.989,-178.125 88.802,-26.042 -5.989,124.219 -11.979,38.802 -17.969,152.084 72.135,9.114 135.938,-138.021 91.927,-105.208 28.906,41.146 2.083,55.989 -64.062,140.886 -155.99,186.198 -192.968,172.916 -170.053,105.99 -48.958,9.896 -113.802,60.156 -139.062,126.042 -257.032,160.937 -357.031,83.073 h -394.01 l -366.927,-86.979 -133.073,-64.062 -214.063,-109.115 -144.01,-41.927 -25,5.989 11.198,97.917 128.906,142.969 205.989,153.125 239.063,129.948 97.917,38.021 338.02,111.979 -384.114,-44.011 -260.938,-4.948 -114.843,52.084 42.968,94.791 125,83.073 271.875,83.073 270.052,-13.021 166.928,-84.895 92.187,-54.167 15.885,42.969 -66.927,119.01 -136.198,122.136 -137.76,108.854 3.906,69.01 111.979,75 159.896,123.177 226.042,203.906 177.083,175 222.917,247.917 116.146,198.958 41.927,214.063 2.083,107.031 -33.073,291.146 -125,235.938 -128.125,144.01 -169.791,186.979 -55.99,116.927 40.885,100 46.094,53.125 79.948,125.781 26.823,171.094 -20.833,271.094 -19.011,132.812 -72.135,393.23 -94.792,405.989 -53.125,189.844 -110.937,435.156 -16.927,323.958 78.906,258.855 95.052,145.052 117.969,192.968 32.031,148.959 -2.083,8.073 -4.948,138.021 23.958,260.937 48.958,333.073 10.157,54.948 95.833,675 23.958,560.156 -50.781,492.969 -131.25,476.042 -76.823,202.864 -179.948,432.031 -141.146,307.032 -127.083,225 -137.76,185.937 -175,191.146 -23.177,23.958 -239.063,321.875 -63.802,250 -16.146,176.042 -69.01,30.99 -85.938,-38.021 -186.979,-19.011 -148.958,125 -73.959,235.157 -3.125,45.833 -84.895,165.104 -245.053,91.927 -398.958,17.969 -240.104,-16.927 -328.906,-3.125 -297.917,48.177 -68.229,22.917 -276.823,195.052 -252.083,315.885 -190.105,377.083 -94.791,378.907 -4.167,88.02 -57.812,385.938 -162.24,464.062 -50,110.938 -136.979,309.115 -96.875,259.114 -36.979,154.948 -54.948,192.969 -64.063,100 -127.083,233.073 -117.969,366.927 -97.917,454.948 -36.979,248.958 -73.958,404.167 -123.177,344.01 -203.906,359.896 -133.073,196.875 -158.854,258.073 -86.198,245.052 -38.021,311.979 -6.771,177.084 -9.115,317.968 -8.073,246.094 -5.989,115.885 -59.896,8.073 -136.979,-97.135 -1.042,-1.042 -97.916,-107.812 -51.042,-130.99 -11.198,-204.166 19.01,-326.042 5.209,-55.99 19.791,-376.823 -20.833,-210.156 -66.146,-55.99 -115.885,89.063 -33.073,39.062 -71.875,178.907 -53.125,310.156 -29.948,392.969 -5.99,426.823 21.875,414.062 29.167,225 39.063,328.125 -17.188,231.771 -80.99,213.021 -20.052,38.021 -107.812,235.156 -54.948,186.979 -2.083,20.833 -59.115,130.99 -151.823,218.229 -214.062,263.021 -36.98,41.927 -259.114,273.958 -186.979,152.084 -147.917,52.864 -78.125,-3.906 -166.927,10.938 -141.927,128.125 -89.063,136.979 -117.968,222.916 -64.063,164.063 -2.864,26.042 -67.188,169.01 -180.99,246.875 -269.01,292.969 -327.865,304.948 -66.145,55.989 -239.844,194.011 -123.958,80.989 -25,-25 34.895,-79.948 146.875,-229.948 175,-217.968 143.23,-220.052 72.916,-300 16.927,-202.084 v -272.916 l -27.864,-173.959 -33.073,-36.979 -69.011,83.854 -100,211.979 -107.031,290.105 -182.031,415.885 -259.896,417.188 -297.135,365.885 -297.917,264.062 -110.938,66.928 -57.031,5.989 70.052,-92.969 119.792,-116.927 252.083,-265.104 133.073,-216.927 2.084,-146.094 -29.167,-27.864 -95.833,35.937 -186.198,134.896 -238.802,207.031 -39.063,36.198 -289.062,250.781 -289.063,213.021 -223.958,130.209 -279.948,152.864 -284.896,203.125 -46.094,38.802 -167.969,133.073 -163.02,78.125 -213.021,36.979 -320.052,10.938 h -458.854 l -190.105,-9.896 -46.093,-37.24 102.083,-79.947 253.125,-138.021 305.99,-158.854 171.875,-132.032 V 39012.5 l -165.886,-54.948 -66.146,-2.083 -185.937,53.125 -257.031,132.812 -265.886,174.219 -211.979,175 -76.042,89.844 -116.146,41.927 -280.989,30.989 -426.042,18.23 -425,4.948 -1189.844,-1.042 286.98,-175 272.916,-210.938 135.157,-205.208 -17.188,-175.781 -27.865,-34.115 -101.041,-182.031 71.875,-163.021 236.198,-136.979 394.791,-103.906 40.105,-7.032 273.958,-82.031 215.104,-125 27.865,-27.864 175,-133.073 132.031,-40.104 188.021,-51.823 135.937,-78.125 119.011,-109.896 -25,-97.136 -70.834,-77.083 -126.041,-95.833 -144.011,-1.042 -180.989,61.979 -292.969,140.104 -260.156,154.948 -338.021,130.99 -386.979,-3.125 -377.865,-130.99 -227.083,-165.885 -169.011,-198.958 -89.843,-179.167 -5.209,-34.896 47.136,-109.896 103.906,10.938 107.031,110.937 40.104,98.959 69.792,114.062 161.198,51.042 205.989,8.073 634.896,-84.115 561.979,-247.917 483.073,-409.114 197.917,-246.875 115.104,-205.99 -5.989,-97.135 -104.167,16.146 -175.781,130.989 -116.146,117.969 -397.917,340.885 -459.114,230.99 -460.938,91.927 h -25 l -288.021,-50 -295.833,-128.906 -243.229,-175 -132.813,-185.938 -7.031,-25 19.01,-130.989 113.021,-1.042 179.948,127.083 33.073,30.99 273.958,155.99 346.875,23.958 385.938,-96.094 388.021,-202.864 355.208,-298.178 204.948,-250 189.844,-296.875 90.104,-184.895 -10.938,-62.24 -109.114,70.052 -176.823,176.042 -290.104,259.114 -328.906,207.032 -305.99,119.791 -131.25,17.188 -3.906,-51.042 110.937,-132.031 138.021,-125 202.083,-182.031 76.042,-104.948 -33.073,-60.938 -50,-24.219 -208.073,1.042 -282.812,115.104 -5.209,2.084 -339.843,129.948 -445.052,58.854 -158.073,5.208 -482.032,-19.01 -314.843,-77.084 -152.084,-139.062 -15.885,-82.031 41.927,-91.928 155.99,-2.083 64.062,11.979 216.927,11.979 103.906,-58.854 -32.812,-96.093 -139.063,-77.865 -171.093,-110.156 -59.896,-114.844 50,-123.958 100,15.885 53.906,83.073 100,113.802 189.063,132.031 220.052,119.011 195.833,77.083 115.104,3.906 5.99,-7.812 -27.865,-105.209 -135.156,-157.812 -51.042,-45.052 -194.01,-209.896 -123.959,-221.094 -7.812,-27.083 -14.063,-179.948 105.99,-104.948 96.875,-41.927 215.104,-56.25 83.854,32.031 -63.802,105.99 -64.062,55.208 -120.052,107.813 22.916,80.989 98.177,80.99 292.969,123.177 308.854,-34.115 244.011,-163.02 159.114,-244.011 3.907,-71.875 h 7626.041 l 19.011,133.073 128.125,468.75 33.854,465.104 -61.979,380.99 -61.979,241.927 28.906,86.979 114.062,-71.875 125,-141.927 203.125,-392.969 39.844,-429.166 -107.812,-378.907 -124.219,-189.062 -141.927,-135.938 -123.959,-64.062 -70.052,27.083 h -7626.041 l 10.156,-192.969 -132.031,-320.052 -92.969,-147.916 -179.167,-268.23 -160.937,-240.885 -47.917,-71.875 -182.031,-213.021 -246.094,-220.052 -257.812,-189.062 -219.011,-116.928 -83.073,-19.01 -178.906,-73.958 -216.146,-194.011 -219.01,-267.968 -183.854,-298.178 v -1.822 h 356.77 l 26.042,166.927 90.104,111.979 64.844,48.958 207.031,123.958 122.136,7.032 60.937,-63.021 -17.969,-114.844 -65.885,-76.042 -95.052,-177.083 -36.198,-273.958 22.135,-301.042 80.99,-255.989 28.906,-46.094 76.042,-189.844 -7.031,-180.99 -82.032,-103.125 -30.989,-3.906 -121.875,71.094 -129.948,166.927 -83.073,186.979 -3.125,11.979 -26.823,172.917 -35.937,273.958 -20.053,162.24 -23.177,280.99 h -356.77 l -107.032,-263.021 -47.135,-286.198 -23.958,-386.979 2.083,-411.98 1.823,-33.854 30.208,-390.104 57.813,-313.021 105.208,-308.073 172.917,-375.781 46.875,-96.094 160.156,-329.948 117.969,-264.062 59.895,-159.896 3.125,-30.989 -109.114,-2.084 -216.927,52.865 -271.094,88.021 -267.969,105.989 -209.896,102.084 -73.958,51.041 -144.01,95.052 -76.042,1.042 19.01,-94.01 135.938,-155.209 216.927,-184.896 261.198,-178.906 58.854,-35.156 309.896,-176.823 -269.792,-33.073 -296.093,-92.969 -210.938,-172.135 -79.167,-207.031 38.021,-194.792 94.011,-275 120.052,-277.083 115.104,-201.042 10.937,-15.104 108.073,-61.979 92.969,59.114 58.854,108.073 -76.823,136.979 -35.156,38.802 -138.021,228.125 -14.844,221.875 103.907,159.115 66.146,32.031 235.937,-9.114 276.042,-132.032 260.937,-221.875 158.073,-211.979 89.844,-177.083 27.083,-121.875 h 336.979 l 77.084,21.875 171.875,-102.865 228.125,-210.156 196.875,-227.865 123.958,-183.072 23.177,-95.053 -114.062,-41.927 -182.032,98.959 -227.083,225 -97.917,122.135 -164.062,252.865 -35.938,140.104 h -336.979 l 11.979,-50 -9.114,-226.042 -48.959,-340.104 -83.854,-616.927 -11.979,-267.969 h 14167.969 l 25,217.969 38.802,146.875 129.167,360.156 139.062,261.979 133.854,146.094 110.938,6.771 55.208,-87.76 -17.187,-136.198 -82.813,-230.99 -69.01,-151.823 -51.042,-108.073 h 508.073 l 6.771,173.959 80.208,96.093 128.906,-21.093 90.886,-83.073 146.094,-248.959 116.927,-330.989 78.125,-358.854 29.948,-335.157 -27.865,-257.031 -53.125,-100 -77.083,19.01 -97.917,144.011 -95.052,217.969 -70.833,242.187 -23.177,189.844 -50,240.104 -95.053,198.958 -87.76,213.021 h -508.073 l -79.167,-167.969 -97.916,-233.072 -27.865,-77.084 -66.146,-113.802 -88.02,42.969 -52.865,123.958 H 19477.604 l -9.114,-214.062 46.093,-384.896 114.844,-323.177 105.99,-182.813 235.156,-286.979 284.896,-258.073 114.062,-78.906 316.927,-194.01 188.021,-127.084 77.083,-86.979 -10.156,-78.125 -75.781,-96.875 -37.24,-41.927 -111.979,-147.135 -54.948,-146.875 v -196.094 l 52.084,-291.146 57.031,-250 101.042,-317.969 132.812,-273.958 141.146,-195.052 126.042,-78.906 55.989,21.093 -10.156,98.959 -84.896,113.02 -103.125,171.875 v 247.136 l 10.156,57.812 84.896,307.032 146.094,185.156 257.031,119.01 114.844,33.854 336.979,72.136 179.948,-9.115 25,-91.927 -100.781,-147.135 -165.104,-300.781 2.083,-298.178 157.031,-255.989 290.886,-173.958 202.083,-21.094 167.969,58.073 58.854,96.093 -56.771,42.969 -39.063,-16.146 -129.947,10.157 -160.157,108.854 -123.958,154.166 -30.99,104.948 77.865,190.105 191.146,172.916 240.885,105.99 105.209,13.021 271.875,-75 180.989,-135.938 185.938,-274.219 125,-331.77 55.989,-337.24 -23.958,-287.76 -101.823,-179.167 -105.208,-159.896 -82.032,-242.969 -5.989,-28.125 -76.823,-292.968 -103.125,-259.115 -1.823,-2.865 -91.146,-228.125 -30.989,-167.968 -40.886,-188.802 -98.177,-239.063 -7.031,-15.104 -106.771,-388.021 3.906,-260.937 96.875,-396.094 189.063,-459.896 248.958,-460.937 276.042,-397.136 178.906,-195.052 354.167,-327.865 -277.084,-169.01 -83.073,-77.083 h 12112.24 l 11.979,88.021 70.834,110.937 161.979,232.031 142.187,217.969 155.99,183.073 127.864,16.146 76.042,-115.104 -38.021,-121.094 -136.979,-188.802 -103.906,-113.021 -215.104,-191.146 -164.063,-105.989 -88.802,-13.021 h -12112.24 l -138.802,-128.907 -51.041,-258.072 50,-195.834 88.02,-124.219 47.917,-17.968 22.136,63.021 -54.167,123.177 -60.938,147.916 59.896,121.875 104.167,92.969 204.948,123.177 147.916,5.99 53.125,-113.021 -1.041,-9.115 -10.938,-163.021 -11.198,-209.895 -84.895,-272.917 -191.928,-263.021 -4.947,-7.031 h 3521.875 l 61.979,90.885 216.927,92.969 380.208,99.219 379.948,77.864 684.896,103.125 555.989,19.011 461.98,-69.011 400,-158.073 66.145,-35.937 480.99,-372.135 411.979,-494.011 296.875,-559.896 11.198,-30.989 119.011,-332.032 50.781,-197.916 -14.844,-97.136 -76.042,-29.948 h -22.135 l -112.76,66.928 -179.167,177.083 -204.948,248.958 -2.083,2.084 -201.042,248.958 -168.75,177.864 -101.042,69.011 h -1.041 l -59.115,72.135 8.073,108.854 3.125,164.063 -65.104,79.167 -91.146,-52.084 -7.813,-10.937 -91.145,-66.146 -64.844,73.958 -9.115,171.094 4.167,25 9.896,115.885 -53.906,63.021 -155.99,28.125 -286.198,8.854 -363.021,30.99 -350,70.052 -157.812,52.083 -295.052,90.105 -203.125,-26.042 -13.802,-7.031 -201.042,-50 -104.167,14.843 -167.969,-13.802 -115.885,-76.041 -242.969,-132.032 -271.093,39.063 -66.928,35.937 -83.072,94.011 h -3521.875 l -241.146,-300 -86.979,-265.104 63.02,-251.823 8.073,-15.104 115.886,-205.99 29.948,203.125 114.062,221.875 233.073,119.01 308.073,-3.906 164.844,-50 10.937,-14.062 h 3248.177 l 92.969,114.062 151.823,71.875 235.156,78.125 113.021,3.906 33.854,-72.135 1.042,-42.969 -76.042,-123.958 -175,-107.031 -191.927,-51.823 -104.948,19.01 -79.948,110.938 h -3248.177 l 55.99,-75 -2.865,-188.021 -14.062,-107.031 -48.959,-376.042 141.927,248.177 160.938,192.969 155.208,45.833 15.886,-14.844 h 2642.968 l 28.125,39.844 126.823,52.083 114.063,-65.104 145.052,-69.791 130.99,67.968 132.031,63.021 140.885,-73.177 34.115,-29.948 157.031,-85.937 82.031,52.864 -22.135,158.073 -42.969,83.073 -63.021,207.031 85.157,139.844 203.906,46.094 172.916,-28.906 244.011,-44.011 185.937,7.813 h 1.042 l 163.021,-26.042 147.135,-109.896 150,-134.896 96.875,-46.093 123.959,-53.907 189.062,-134.114 209.115,-175 182.812,-177.084 111.979,-137.76 14.063,-52.083 -101.823,-19.011 -169.01,66.927 -169.011,117.969 -76.042,86.979 -132.031,66.146 -82.031,-13.021 -161.979,21.094 -66.927,75 -108.073,100.781 -65.104,-4.948 -14.844,-89.062 94.01,-133.854 152.865,-134.115 163.021,-89.844 111.979,-9.114 147.135,-17.969 44.792,-61.979 127.083,-100 229.948,-34.115 205.209,-22.916 98.958,-57.032 1.823,-9.895 -32.813,-64.063 -119.01,-20.052 -229.948,27.083 -370.052,75 -132.031,29.948 -411.98,101.042 -254.947,85.937 -120.053,83.073 -7.031,94.011 51.042,78.906 66.927,128.125 -53.906,136.979 -63.021,79.948 -130.99,158.073 -67.187,84.896 -61.979,-25 -46.875,-63.021 -11.98,-176.042 72.917,-110.937 97.136,-197.917 -64.063,-160.937 -207.031,-84.115 -41.927,-3.906 -435.157,-10.156 -304.947,27.083 -221.094,75 -182.813,132.031 -11.979,10.938 -160.156,177.083 -19.011,119.01 h -2642.968 l 102.083,-96.093 8.854,-21.094 89.063,-94.011 55.989,9.115 144.011,33.073 60.156,-84.115 -50,-151.041 -35.156,-44.011 -108.073,-128.906 21.094,-27.083 119.01,33.073 185.937,22.135 51.042,-72.135 -85.937,-138.021 -125,-108.073 -182.032,-159.896 -79.948,-121.094 35.938,-51.823 108.073,23.959 97.917,13.021 10.937,-98.178 -25,-113.802 -32.031,-169.01 36.198,-23.958 69.01,50.781 150,71.094 70.833,-9.896 103.125,28.906 127.865,142.969 1.042,1.041 153.125,177.865 115.885,35.156 53.125,-115.104 0.781,-30.989 57.032,-154.948 146.093,-220.052 113.021,-138.021 228.906,-319.792 85.938,-276.042 v -11.979 l -22.917,-179.166 -107.031,-66.928 -148.958,-8.072 -270.052,64.062 -279.948,207.031 -35.938,34.896 -176.041,159.115 -110.938,67.968 -20.052,-13.02 60.937,-103.907 159.115,-186.979 225,-232.031 19.01,-17.969 214.063,-226.041 135.937,-179.1672 30.99,-97.9166 -4.948,-3.9063 -63.021,-79.1666 h 321.875 l 28.125,128.125 126.042,19.0104 180.99,-88.0209 106.77,-91.1458 116.146,-148.9583 16.927,-92.9688 -128.906,-20.8333 -190.104,63.8021 -172.917,113.0208 -83.073,117.9688 h -321.875 l -41.146,-50 -40.885,-86.9792 -135.937,-127.8646 -173.178,-33.0729 -227.864,-42.9688 -209.115,-98.9583 -120.052,-121.0937 -8.854,-36.9792 75,-50 83.073,-10.9375 90.885,-17.9688 -40.885,-70.052 -95.052,-84.1146 -160.156,-154.9479 -32.813,-79.948 95.833,14.0625 73.959,35.9375 139.062,45.0521 41.146,-28.125 80.99,-44.0104 207.812,-25 161.979,-2.8646 257.032,19.0104 164.062,39.8438 29.948,29.1667 78.125,40.8854 189.844,-4.9479 40.104,-4.948 310.937,3.9063 161.98,71.0937 197.135,102.8646 117.969,25 107.031,54.1667 -7.031,139.8437 -15.104,127.0834 80.208,30.9896 156.771,-28.125 259.114,7.0312 205.99,113.0208 96.094,184.1146 0.781,34.8959 -64.844,216.1458 -154.948,269.0104 -201.041,255.99 -139.063,130.989 -177.083,114.844 -63.802,-4.948 50,-103.906 164.843,-180.209 13.021,-11.979 234.115,-275 113.021,-255.9893 -10.157,-207.0313 -133.854,-128.9062 -161.979,-27.8646 -229.167,65.8854 -245.833,172.9167 -230.989,241.1458 -189.063,270.0525 -116.927,260.937 -15.104,213.021 40.104,76.823 -17.188,104.167 -125,190.885 -185.937,219.01 -208.073,244.011 -145.833,210.156 -49.219,120.833 79.167,210.938 197.916,198.177 259.115,138.802 202.864,37.24 310.938,-51.042 317.187,-165.104 350,-295.052 346.875,-370.834 355.99,-367.968 311.979,-241.146 254.167,-105.99 177.864,39.063 11.98,10.937 42.187,117.969 -104.167,163.021 -1.822,2.083 -90.105,133.854 30.99,45.052 115.885,-44.01 166.146,-132.031 5.99,-5.99 150,-253.906 -1.042,-14.063 h 205.99 l 44.01,129.167 91.146,-4.167 119.792,-113.02 16.145,-64.063 -73.177,-110.937 -62.76,-14.844 -110.156,75 -25,102.864 h -205.99 l -10.937,-245.833 -166.146,-218.229 -103.906,-61.979 -178.907,-67.969 -164.062,4.948 -222.136,86.198 -87.76,41.927 -252.083,107.031 -121.094,8.854 -20.052,-40.885 80.989,-191.927 214.063,-117.969 185.156,-23.177 173.958,-13.021 23.959,-57.031 -46.094,-64.844 -157.031,-115.1041 -85.938,-20.0521 -89.843,-61.9791 -1.042,-132.0313 78.906,-119.0104 44.011,-22.9167 109.895,47.1355 135.157,157.8125 20.833,33.0729 186.198,216.9268 226.042,144.011 4.947,2.083 261.98,119.01 252.864,153.907 228.125,126.041 203.906,57.032 h 9.115 l 176.042,40.104 63.802,50 147.135,82.031 258.854,6.771 324.219,-56.771 339.844,-110.156 311.979,-152.084 190.104,-138.802 202.865,-242.187 41.146,-198.9585 -120.052,-139.8437 -119.011,-44.0105 -225,-55.9895 207.031,-67.9688 275,1.8229 159.115,78.125 159.896,145.0521 25,180.99 -16.146,86.979 -11.979,203.906 71.094,54.948 130.989,-98.958 90.104,-120.052 142.969,-157.813 89.063,-3.125 5.989,129.948 -66.146,166.146 -95.833,238.021 -39.062,194.01 -63.021,186.979 -116.927,146.875 -149.219,171.094 -20.833,113.802 76.041,31.25 150.781,-67.187 203.125,-165.886 207.032,-216.146 159.896,-215.885 61.979,-134.115 97.135,-246.875 98.958,-152.083 21.875,-34.896 h 1257.032 l 76.041,172.917 191.927,186.979 254.167,158.073 215.886,77.083 398.958,21.875 386.198,-83.073 288.021,-164.843 209.895,-294.011 73.959,-341.927 -47.917,-348.1771 -154.948,-314.0625 -247.135,-236.9791 -323.959,-119.0105 -104.947,-6.7708 -310.938,35.9375 -263.021,91.9271 -163.021,126.0417 -28.125,79.9479 50,79.9479 172.917,1.0417 77.083,-11.9792 322.917,22.1354 286.198,160.9375 197.917,260.9375 65.104,283.0729 -25,220.8331 -59.115,132.032 -5.989,4.947 -84.115,-4.947 -6.771,-30.99 -66.146,-22.917 -161.979,63.021 -25,14.063 -329.948,94.791 -327.083,-66.927 -239.844,-183.854 -166.146,-152.083 -102.083,-3.125 -23.958,97.135 h -1257.032 l 65.105,-109.114 -9.115,-171.8755 -45.833,-146.0937 -59.115,-244.0105 3.125,-191.927 3.906,-13.0209 -5.989,-97.9166 h 810.937 l 19.011,94.0104 134.114,170.8333 1.042,1.0417 232.812,209.1146 274.219,154.9479 269.011,86.9791 219.01,3.9063 122.917,-91.9271 2.083,-3.9062 22.917,-139.0625 -89.063,-76.0417 -229.948,-30.9896 -82.031,-3.125 -270.052,-45.8333 -172.917,-146.0938 -32.031,-46.875 -108.073,-172.1354 -55.989,-88.0208 -82.813,11.1979 -87.24,41.9271 -86.979,70.0521 h -810.937 l -7.031,-99.2188 -73.959,-128.9062 h 1566.146 l 32.813,73.9583 27.083,-13.8021 10.937,-107.0312 -10.937,-13.0209 -53.125,11.9792 -6.771,47.9167 h -1566.146 l -64.062,-109.8959 -227.865,-248.1771 -66.927,-52.8645 h 1031.771 l 42.187,221.875 38.802,103.125 40.105,-16.9271 52.083,-158.0729 61.979,-257.0313 78.906,-309.8958 72.917,-171.0938 91.146,-71.0937 95.052,-11.9792 213.802,55.9896 106.25,79.1666 137.76,119.7917 80.209,-4.9479 -17.188,-120.0521 -15.885,-29.9479 -192.969,-191.9271 -279.948,-98.9583 -286.979,16.9271 -67.187,27.0833 -160.938,171.875 -86.979,290.1042 -3.125,355.9896 h -1031.771 l -212.24,-169.0105 -294.01,-161.9791 -271.875,-69.0105 h -19.01 l -200,-30.9895 -97.917,-60.1563 -122.136,-63.8021 -207.031,-26.0416 -244.01,55.9895 -240.886,186.9792 -66.927,72.9167 -191.146,188.0208 -159.895,113.0209 -48.959,14.0625 -167.187,44.0104 -142.969,69.0104 -152.865,66.9271 -72.135,-48.9584 -7.031,-17.9687 -113.802,-85.1563 -205.209,-19.7916 -220.833,44.0104 -116.927,63.8021 -235.156,222.1354 -83.073,176.0417 55.989,163.0208 38.021,45.8333 241.146,155.9896 272.917,-16.9271 291.146,-188.0208 20.833,-20.0521 215.104,-201.0417 191.927,-165.8854 20.052,-15.8854 120.052,-86.1979 v 45.0521 l -50,98.9583 -179.166,242.9688 -248.959,228.125 -277.083,184.8958 -259.896,116.1458 -202.083,19.0104 -55.99,-26.0416 -159.896,-60.1563 -196.093,-20.8333 -221.875,-34.1146 -153.125,-85.9375 -38.021,-105.9896 24.219,-38.0208 117.968,-9.8958 123.959,54.9479 141.927,52.8646 35.156,-65.8855 -69.01,-164.0625 -139.063,-197.9166 -154.167,-166.1459 -145.833,-47.9166 -225,45.0521 -4.167,1.0416 -244.01,51.0417 -163.802,-35.1563 -83.073,-77.0833 h 1046.875 l 53.125,77.0833 122.917,-42.9687 94.01,-88.0208 72.135,-111.9792 -67.187,-13.0208 -131.771,44.0104 -124.219,88.0208 -19.01,46.875 H 28612.5 l -78.906,-71.875 -64.063,-75 -100,-203.125 27.084,-108.8542 69.791,-59.1145 70.052,91.1458 34.115,83.0729 94.01,175.7813 88.802,69.0104 39.063,-69.0104 -51.042,-157.0313 -59.896,-209.8958 52.084,-82.0313 144.791,61.9792 58.073,48.1771 136.979,100 142.188,10.9375 225,-72.1354 4.948,-1.823 80.989,-42.1875 h 957.813 l 44.01,36.9792 201.042,-27.8646 211.979,-11.9791 100,94.0104 1.042,1.0416 105.989,126.823 160.938,-38.8021 153.125,-128.125 164.062,-215.1042 11.98,-145.8333 -122.136,-71.0938 -236.979,14.0625 -333.854,105.9896 -91.146,39.0625 -258.854,132.0312 -111.198,88.8021 h -957.813 l 161.98,-83.8541 170.833,-148.9584 70.052,-136.9791 -60.937,-91.1459 -7.032,-2.0833 -72.916,-84.8958 10.937,-39.0625 111.979,-29.948 122.917,45.0521 201.042,21.0938 198.177,-107.0313 13.802,-19.0104 h 1196.094 l 72.135,101.0417 146.875,41.9271 75,-17.9688 28.906,-97.1354 -11.979,-26.8229 -110.937,-72.1354 h -135.938 l -64.062,71.0937 h -1196.094 l 129.166,-167.9687 38.021,-220.0521 -5.989,-32.0313 -22.136,-144.0104 67.969,1.0417 77.083,45.0521 128.907,50 147.135,-32.0313 216.927,-129.1667 66.146,-44.7916 253.906,-155.2084 138.021,-27.8645 27.865,30.9895 108.073,73.9584 225,36.9791 53.125,1.0417 325,71.875 219.01,196.0938 83.854,295.052 v 11.9792 l -11.979,117.9688 -67.969,-19.0105 -84.114,-73.9583 -169.792,-113.0208 -145.052,-36.9792 -61.198,52.0833 80.208,203.9063 209.896,186.9792 216.927,103.125 225,60.9375 120.052,-16.9271 65.105,-80.2084 92.968,-94.7916 138.021,44.0104 25,14.8437 176.042,60.9375 96.875,-50 29.948,-127.8645 -97.917,-135.9375 -182.031,-101.0417 -165.886,-29.1667 -166.145,-30.9896 -52.865,-58.8541 69.01,-76.0417 155.99,-4.9479 164.844,64.0625 41.146,33.8542 126.041,58.0729 50,-20.0521 -16.146,-92.9688 -128.906,-144.0104 -196.094,-158.0729 -220.052,-136.9792 -195.833,-80.9895 -29.948,-5.9896 -226.042,-33.0729 226.042,-97.9167 148.958,-75 -5.989,-51.0417 -91.146,-41.9271 -170.833,-110.9375 -204.167,-186.1979 -41.927,-45.8333 -245.052,-273.9583 -392.969,176.8229 -252.083,128.125 -326.042,184.8958 -357.813,216.9271 -348.177,221.0937 -295.833,201.0417 -202.083,152.0833 -55.99,52.8646 -126.042,104.9479 -223.958,150 -157.031,95.0521 -245.833,160.9375 -176.042,150 -48.177,67.1875 -113.802,92.9688 -77.084,-10.1563 -119.01,7.0313 -20.052,50 -70.833,72.1354 -119.011,-10.9375 -226.042,-4.1667 -202.083,51.0417 -226.042,72.9167 -302.864,77.0833 -309.115,65.1042 -239.843,35.9375 -62.24,2.8646 -272.917,-19.7917 -358.073,-38.0208 -389.843,-51.0417 -369.011,-54.9479 -295.052,-52.0834 -164.062,-41.1458 -219.792,-127.8646 -219.01,-189.0625 -5.99,-5.9896 -144.01,-189.8437 -23.178,-169.0104 34.115,-124.2188 130.99,-198.9583 235.937,-119.0104 358.073,-42.9688 498.958,32.0313 334.896,47.9166 369.011,54.1667 304.166,34.8958 194.011,11.9792 38.802,-3.9063 80.208,-115.1041 16.927,-245.0521 -40.104,-340.8854 -90.885,-397.9167 -135.938,-421.0937 -105.208,-254.948 -104.948,-202.0833 -172.917,-295.8333 -208.073,-337.2396 -64.062,-100 -47.917,-79.9479 h 736.979 l 13.021,98.1771 78.125,198.9583 117.969,248.9583 128.906,246.0938 116.146,187.7604 75,80.2083 h 1.823 l 35.937,-72.1354 -20.833,-130.9896 -77.083,-184.8958 -123.959,-227.0833 -139.062,-221.0938 -122.917,-164.8437 -77.083,-61.9792 -5.99,2.8646 h -736.979 l -163.021,-271.875 -179.948,-341.9271 -116.927,-273.1771 -17.187,-52.8646 -17.969,-92.9687 h 654.948 l 33.073,144.0104 85.156,200.7813 107.813,208.0729 105.208,164.0625 73.958,71.875 15.886,-11.9792 -5.99,-36.9792 h 6616.146 l 32.813,73.9584 28.125,-13.8021 9.895,-107.0313 -9.895,-13.0208 -54.167,13.0208 -6.771,46.875 h -6616.146 l -15.885,-92.9687 -94.011,-221.0938 -77.083,-144.7916 -126.042,-201.0417 -83.073,-92.9687 -19.01,13.0208 h -654.948 l -14.844,-71.0938 h 7805.99 l 13.802,127.8646 31.25,-14.8437 11.979,-185.1563 -11.979,-40.8854 -33.073,-10.9375 -11.979,123.9583 h -7805.99 l -14.062,-72.9166 21.875,-191.1459 107.031,-228.9062 50,-88.0208 h 504.167 l 42.968,92.9687 46.875,-8.0729 86.98,-114.8438 3.125,-26.0416 -69.011,-82.0313 -21.094,-2.0833 -78.906,73.1771 -10.937,66.9271 h -504.167 l 4.167,-7.0313 369.791,-485.9375 516.146,-475 632.031,-447.1354 313.021,-176.8229 h 5340.886 l 46.094,160.9375 110.937,213.0208 136.979,202.8646 123.959,133.0729 46.093,20.0521 46.875,-72.1354 -17.968,-130.9896 -80.99,-169.0104 -126.042,-176.0417 -135.937,-144.7917 -107.031,-73.177 -42.969,36.1979 h -5340.886 l 401.042,-226.0417 763.802,-342.96875 779.948,-267.1875 765.104,-172.916667 716.146,-64.0625 h 20.833 l 310.938,38.020834"
       transform="scale(0.015)"
       id="path103"
       inkscape:connector-curvature="0" />
  </g>
</svg>
